<?xml version="1.0" encoding="utf-8"?>
<!DOCTYPE svg PUBLIC "-//W3C//DTD SVG 1.1//EN" "http://www.w3.org/Graphics/SVG/1.1/DTD/svg11.dtd">
<svg style="width:308px;height:308px;" version="1.1" id="图形" xmlns="http://www.w3.org/2000/svg" xmlns:xlink="http://www.w3.org/1999/xlink" x="0px" y="0px" width="1025px" height="1024px" viewBox="0 0 1025 1024" enable-background="new 0 0 1025 1024" xml:space="preserve">
  <path class="svgpath" data-index="path_0" fill="#fff" d="M987.55088 504.853333C882.27088 203.562667 726.17488 141.845333 635.444214 192.661333c-85.376 47.808-77.632 47.424-115.669333 47.210667l0-0.021333c-1.386667 0-2.581333 0-3.904 0-1.301333 0-2.453333 0-3.861333 0l0 0.021333c-38.976 0.213333-37.994667 0.618667-123.413333-47.210667C297.844214 141.845333 141.748214 203.562667 36.468214 504.853333c-105.258667 301.312 50.816 341.205333 50.816 341.205333 101.653333 14.506667 228.693333-101.653333 283.136-159.722667C424.905547 628.266667 512.009547 639.146667 512.009547 639.146667s87.125333-10.88 141.568 47.189333c54.442667 58.090667 181.504 174.229333 283.136 159.722667C936.713547 846.058667 1092.809547 806.165333 987.55088 504.853333zM314.249547 563.626667c-76.288 0-138.048-61.802667-138.048-138.048s61.781333-138.069333 138.048-138.069333c76.288 0 138.090667 61.824 138.090667 138.069333S390.55888 563.626667 314.249547 563.626667zM744.329547 584.725333c-22.058667 0-39.936-17.877333-39.936-39.936 0-22.037333 17.877333-39.936 39.936-39.936s39.936 17.877333 39.936 39.936C784.265547 566.826667 766.388214 584.725333 744.329547 584.725333zM747.956214 414.101333c-22.058667 0-39.936-17.877333-39.936-39.936 0-22.037333 17.856-39.936 39.936-39.936 22.08 0 39.936 17.877333 39.936 39.936C787.892214 396.202667 770.036214 414.101333 747.956214 414.101333zM831.45488 497.6c-22.058667 0-39.936-17.877333-39.936-39.936 0-22.058667 17.856-39.936 39.936-39.936 22.08 0 39.936 17.877333 39.936 39.936C871.39088 479.701333 853.513547 497.6 831.45488 497.6zM354.01488 353.536l-79.488 0 0 32.277333-32.277333 0 0 79.488 32.277333 0 0 32.298667 79.488 0 0-32.298667 32.277333 0 0-79.488-32.277333 0L354.01488 353.536z" />

</svg>
