<?xml version="1.0" encoding="utf-8"?>
<!DOCTYPE svg PUBLIC "-//W3C//DTD SVG 1.1//EN" "http://www.w3.org/Graphics/SVG/1.1/DTD/svg11.dtd">
<svg style="width:308px;height:308px;" version="1.1" id="图形" xmlns="http://www.w3.org/2000/svg" xmlns:xlink="http://www.w3.org/1999/xlink" x="0px" y="0px" width="1118px" height="1024px" viewBox="0 0 1118 1024" enable-background="new 0 0 1118 1024" xml:space="preserve">
  <path class="svgpath" data-index="path_0" fill="#F44336" d="M789.584239 0.186142C742.117944 0.186142 693.876056 11.261611 648.085042 35.149877 615.944466 51.964735 587.123428 75.697882 555.013875 97.414488 555.013875 97.414488 555.013875 97.414488 555.013875 97.414488 555.013875 97.414488 552.935286 95.739207 551.011815 93.877784 487.816493 32.1716 407.620171 0.341261 326.493137 0.341261 270.619413 0.341261 214.311358 15.449814 162.811979 46.287394 44.487502 117.176599-18.45963 256.87642 4.777138 396.297028 18.117338 476.431302 55.780137 542.635926 110.195746 599.471385 213.008361 706.78244 390.805313 891.963038 488.747204 993.844942 508.074983 1013.979338 533.328293 1024 558.612627 1024 583.865937 1024 609.119247 1013.979338 628.416002 993.969037 728.963886 889.667283 913.927318 697.072015 1020.617899 583.028812 1095.912472 502.615324 1128.704547 403.246342 1113.533947 290.413064 1090.328202 117.828097 944.299542 0.186142 789.584239 0.186142 789.584239 0.186142 789.584239 0.186142 789.584239 0.186142Z" />

</svg>
