<?xml version="1.0" encoding="utf-8"?>
<!DOCTYPE svg PUBLIC "-//W3C//DTD SVG 1.1//EN" "http://www.w3.org/Graphics/SVG/1.1/DTD/svg11.dtd">
<svg style="width:308px;height:308px;" version="1.1" id="图形" xmlns="http://www.w3.org/2000/svg" xmlns:xlink="http://www.w3.org/1999/xlink" x="0px" y="0px" width="1024px" height="1024px" viewBox="0 0 1024 1024" enable-background="new 0 0 1024 1024" xml:space="preserve">
  <path class="svgpath" data-index="path_0" fill="#fff" d="M953.408 74.656l-4.032-4.032c-94.144-94.144-248.192-94.144-342.336 0l-218.112 218.144c-94.144 94.144-94.144 248.192 0 342.304l4.032 4.032c7.84 7.84 16.16 14.912 24.736 21.472l79.84-79.84c-9.312-5.504-18.112-12.064-26.112-20.064l-4.032-4.032c-51.104-51.104-51.104-134.272 0-185.376l218.112-218.112c51.104-51.104 134.272-51.104 185.376 0l4.032 4.032c51.104 51.104 51.104 134.304 0 185.376l-98.688 98.688c17.12 42.304 25.248 87.392 24.544 132.384l152.608-152.608c94.144-94.144 94.144-248.192 0-342.304zM631.04 388.928c-7.84-7.84-16.16-14.912-24.736-21.44l-79.84 79.84c9.312 5.504 18.112 12.064 26.112 20.064l4.032 4.032c51.104 51.104 51.104 134.272 0 185.376l-218.144 218.144c-51.104 51.104-134.272 51.104-185.376 0l-4.032-4.032c-51.104-51.136-51.104-134.272 0-185.376l98.688-98.688c-17.12-42.304-25.248-87.392-24.544-132.384l-152.608 152.608c-94.144 94.144-94.144 248.192 0 342.336l4.032 4.032c94.144 94.144 248.192 94.144 342.336 0l218.112-218.112c94.144-94.144 94.144-248.192 0-342.336l-4.032-4.032z" />

</svg>
