<?xml version="1.0" encoding="utf-8"?>
<!-- Generator: Adobe Illustrator 16.0.0, SVG Export Plug-In . SVG Version: 6.00 Build 0)  -->
<!DOCTYPE svg PUBLIC "-//W3C//DTD SVG 1.1//EN" "http://www.w3.org/Graphics/SVG/1.1/DTD/svg11.dtd">
<svg version="1.1" xmlns="http://www.w3.org/2000/svg" xmlns:xlink="http://www.w3.org/1999/xlink" x="0px" y="0px"
	 width="319.323px" height="71.526px" viewBox="0 0 319.323 71.526" enable-background="new 0 0 319.323 71.526"
	 xml:space="preserve">
<g id="矩形_1_1_" enable-background="new    ">
</g>
<g id="_xA9__1_" display="none" enable-background="new    ">
</g>
<g id="Muse">
	<g>
		<g>
			<g>
				<g>
					<g>
						<path fill="#FFFFFF" d="M33.69,32.224c-0.279,0-0.563,0-0.842-0.281L1.965,20.711C0.842,20.431,0,19.308,0,18.186
							c0-1.123,0.842-2.246,1.965-2.527L32.848,4.429c0.563-0.281,1.404-0.281,1.966,0l30.882,11.229
							c0.842,0.281,1.684,1.404,1.684,2.527c0,1.122-0.842,2.245-1.966,2.525L34.532,31.942
							C34.252,32.224,33.969,32.224,33.69,32.224z M10.949,18.186l22.741,8.141l22.74-8.141l-22.74-8.142L10.949,18.186z"/>
					</g>
				</g>
				<g>
					<g>
						<path fill="#FFFFFF" d="M33.69,71.526c-0.279,0-0.563,0-0.842-0.28L1.965,60.018c-1.404-0.563-2.247-2.246-1.684-3.65
							c0.561-1.403,2.245-2.247,3.649-1.685l29.76,10.949l30.041-10.949c1.403-0.563,3.086,0.281,3.649,1.685
							c0.562,1.404-0.279,3.088-1.684,3.65L34.814,71.246C34.252,71.526,33.969,71.526,33.69,71.526z"/>
					</g>
				</g>
				<g>
					<g>
						<path fill="#FFFFFF" d="M33.69,71.526c-1.684,0-2.808-1.121-2.808-2.808V29.415c0-1.685,1.124-2.808,2.808-2.808
							c1.683,0,2.807,1.123,2.807,2.808v39.304C36.497,70.405,35.373,71.526,33.69,71.526z"/>
					</g>
				</g>
				<g>
					<g>
						<path fill="#FFFFFF" d="M64.572,60.296c-1.683,0-2.808-1.121-2.808-2.806V18.186c0-1.686,1.125-2.809,2.808-2.809
							c1.684,0,2.808,1.123,2.808,2.809V57.49C67.38,59.175,66.256,60.296,64.572,60.296z"/>
					</g>
				</g>
				<g>
					<g>
						<path fill="#FFFFFF" d="M2.807,60.296C1.123,60.296,0,59.175,0,57.49V18.186c0-1.686,1.123-2.809,2.807-2.809
							c1.685,0,2.808,1.123,2.808,2.809V57.49C5.615,59.175,4.492,60.296,2.807,60.296z"/>
					</g>
				</g>
			</g>
		</g>
		<g id="_xA9_">
			<g>
				<path fill-rule="evenodd" clip-rule="evenodd" fill="#FFFFFF" d="M314.918,4.386C311.983,1.462,308.432,0,304.27,0
					c-4.199,0-7.768,1.462-10.703,4.386s-4.404,6.473-4.404,10.647s1.463,7.724,4.387,10.647s6.49,4.385,10.703,4.385
					c4.174,0,7.73-1.461,10.666-4.385s4.404-6.473,4.404-10.647S317.854,7.31,314.918,4.386z M313.598,24.38
					c-2.564,2.564-5.68,3.847-9.346,3.847c-3.654,0-6.771-1.279-9.348-3.838c-2.576-2.558-3.865-5.677-3.865-9.355
					c0-3.68,1.289-6.801,3.865-9.365s5.693-3.847,9.348-3.847s6.766,1.285,9.338,3.855c2.57,2.571,3.855,5.689,3.855,9.356
					S316.163,21.815,313.598,24.38z M300.165,20.607c-1.338-1.362-2.008-3.233-2.008-5.611c0-2.192,0.654-3.979,1.961-5.361
					c1.307-1.381,2.982-2.071,5.025-2.071c2.119,0,3.816,0.482,5.092,1.449V5.816c-1.424-0.73-3.004-1.097-4.738-1.097
					c-3.109,0-5.627,0.982-7.553,2.945c-1.928,1.964-2.891,4.519-2.891,7.665c0,2.937,0.936,5.346,2.807,7.229
					c1.871,1.884,4.219,2.806,7.043,2.769c2.057,0.037,3.857-0.421,5.406-1.375v-2.898c-1.4,1.065-3.066,1.579-4.998,1.542
					C303.217,22.633,301.502,21.971,300.165,20.607z"/>
			</g>
		</g>
		<g>
			<path fill="#FFFFFF" d="M94.266,61.17c0.483-1.935,1.158-4.085,2.023-6.452c0.865-2.366,1.864-4.835,2.997-7.405
				c1.132-2.57,2.379-5.179,3.741-7.826c1.361-2.646,2.773-5.223,4.237-7.729c1.463-2.507,2.964-4.874,4.504-7.101
				c1.54-2.227,3.06-4.218,4.562-5.974c0.433-0.483,0.973-1.082,1.622-1.794c0.649-0.712,1.375-1.45,2.176-2.214
				c0.802-0.763,1.642-1.521,2.52-2.271c0.878-0.75,1.762-1.425,2.653-2.023c0.891-0.597,1.756-1.082,2.596-1.45
				c0.84-0.369,1.616-0.554,2.329-0.554c0.967,0,1.852,0.166,2.653,0.497s1.489,0.801,2.061,1.412
				c0.573,0.611,1.018,1.343,1.336,2.195c0.318,0.853,0.477,1.788,0.477,2.806c0,0.434-0.032,0.866-0.095,1.298
				c-0.064,0.434-0.147,0.878-0.248,1.337l-4.238,21.301c0.382-0.585,0.917-1.381,1.604-2.386c0.687-1.005,1.463-2.125,2.328-3.36
				c0.865-1.233,1.769-2.519,2.71-3.854c0.941-1.337,1.864-2.628,2.768-3.875c0.903-1.246,1.737-2.385,2.5-3.417
				c0.763-1.03,1.387-1.863,1.871-2.5l0.687-0.878c0.458-0.585,1.018-1.272,1.68-2.061c0.662-0.789,1.393-1.616,2.195-2.481
				c0.801-0.865,1.647-1.718,2.538-2.557c0.891-0.841,1.794-1.59,2.71-2.253c0.917-0.661,1.819-1.202,2.71-1.622
				c0.891-0.42,1.743-0.63,2.558-0.63c0.611,0,1.12,0.141,1.527,0.42c0.407,0.28,0.738,0.656,0.992,1.125
				c0.254,0.472,0.433,1.025,0.535,1.662c0.102,0.636,0.152,1.298,0.152,1.985c0,1.069-0.089,2.15-0.267,3.244
				c-0.179,1.095-0.382,2.087-0.611,2.978c-0.128,0.713-0.3,1.731-0.516,3.054c-0.217,1.324-0.471,2.844-0.764,4.562
				s-0.604,3.576-0.936,5.572c-0.331,1.998-0.668,4.028-1.011,6.09c-0.344,2.061-0.687,4.098-1.031,6.107
				c-0.343,2.011-0.662,3.889-0.954,5.632c-0.293,1.742-0.561,3.301-0.802,4.676c-0.242,1.374-0.439,2.443-0.592,3.206
				c-0.076,0.356-0.197,0.84-0.363,1.451c-0.166,0.61-0.407,1.209-0.725,1.794c-0.318,0.586-0.738,1.095-1.26,1.527
				c-0.521,0.433-1.164,0.648-1.927,0.648c-0.408,0-0.796-0.134-1.165-0.401c-0.369-0.267-0.7-0.604-0.993-1.012
				c-0.292-0.406-0.521-0.846-0.687-1.316s-0.261-0.896-0.286-1.278l7.94-37.716c0.076-0.355,0.14-0.674,0.19-0.954
				c0.051-0.28,0.077-0.547,0.077-0.802c0-0.279-0.032-0.535-0.096-0.763c-0.064-0.229-0.121-0.445-0.171-0.649
				c-0.076-0.229-0.153-0.433-0.229-0.611c-1.145,0.865-2.373,1.966-3.684,3.302c-1.311,1.336-2.634,2.825-3.97,4.466
				c-1.336,1.642-2.672,3.385-4.008,5.229c-1.336,1.846-2.603,3.697-3.798,5.555c-0.942,1.451-1.953,2.979-3.035,4.581
				c-1.082,1.604-2.17,3.214-3.264,4.829c-1.095,1.616-2.157,3.232-3.188,4.849c-1.03,1.616-1.966,3.162-2.806,4.638
				c-0.407,0.713-0.827,1.629-1.26,2.749c-0.433,1.12-0.91,2.214-1.432,3.282c-0.521,1.069-1.082,1.985-1.68,2.749
				c-0.598,0.764-1.278,1.146-2.042,1.146c-0.585,0-1.075-0.09-1.47-0.268s-0.706-0.413-0.935-0.706
				c-0.229-0.292-0.395-0.637-0.496-1.031c-0.102-0.395-0.153-0.82-0.153-1.279c0-0.585,0.058-1.17,0.172-1.755
				c0.114-0.586,0.235-1.146,0.363-1.68c0.534-2.239,1.094-4.466,1.68-6.681c0.585-2.215,1.189-4.479,1.813-6.795
				c0.624-2.315,1.266-4.715,1.928-7.196c0.661-2.48,1.336-5.121,2.023-7.92c0.178-0.789,0.381-1.674,0.611-2.653
				c0.229-0.98,0.445-1.973,0.649-2.978c0.203-1.005,0.369-1.979,0.496-2.92s0.191-1.781,0.191-2.519
				c0-0.663-0.052-1.19-0.153-1.584s-0.293-0.592-0.572-0.592c-0.942,0-1.935,0.351-2.978,1.05c-1.044,0.7-2.1,1.622-3.169,2.768
				c-1.068,1.146-2.125,2.457-3.168,3.933c-1.044,1.476-2.037,2.997-2.978,4.561c-0.942,1.565-1.819,3.111-2.634,4.638
				c-0.814,1.527-1.515,2.902-2.1,4.123c-0.127,0.255-0.312,0.605-0.554,1.05c-0.242,0.446-0.56,1.069-0.954,1.871
				c-0.395,0.802-0.878,1.827-1.451,3.073c-0.573,1.247-1.247,2.824-2.023,4.732c-0.777,1.91-1.674,4.188-2.691,6.834
				c-1.018,2.647-2.164,5.752-3.436,9.314c-0.229,0.611-0.63,1.106-1.203,1.489c-0.573,0.382-1.165,0.572-1.775,0.572
				c-1.323,0-2.297-0.356-2.92-1.069c-0.624-0.713-0.936-1.589-0.936-2.634C94.075,62.238,94.138,61.729,94.266,61.17z"/>
			<path fill="#FFFFFF" d="M175.119,30.554c0.102-0.406,0.249-0.757,0.439-1.05c0.191-0.292,0.395-0.528,0.611-0.706
				c0.216-0.178,0.414-0.305,0.592-0.381c0.178-0.076,0.318-0.115,0.42-0.115c0.28,0,0.611,0.031,0.993,0.096
				c0.381,0.063,0.75,0.12,1.106,0.172c0.407,0.076,0.802,0.152,1.184,0.229c0.662,0.025,1.139,0.293,1.432,0.802
				c0.292,0.51,0.439,1.12,0.439,1.833c0,0.56-0.076,1.081-0.229,1.564c-0.866,3.182-1.655,5.949-2.367,8.303
				c-0.713,2.354-1.317,4.358-1.813,6.013c-0.496,1.655-0.878,3.003-1.145,4.047c-0.268,1.043-0.401,1.832-0.401,2.366
				s0.07,1.133,0.21,1.794c0.139,0.662,0.35,1.279,0.63,1.852c0.28,0.573,0.636,1.05,1.069,1.432
				c0.433,0.382,0.954,0.573,1.565,0.573c1.069,0,2.15-0.331,3.245-0.993c1.094-0.661,2.138-1.47,3.13-2.424
				c0.992-0.954,1.89-1.973,2.691-3.054c0.801-1.082,1.457-2.043,1.966-2.883l0.992-1.718c0.611-1.068,1.177-2.297,1.699-3.684
				c0.521-1.387,0.979-2.78,1.374-4.18c0.395-1.4,0.731-2.717,1.011-3.951c0.28-1.234,0.497-2.221,0.65-2.959l0.991-5.077
				c0.204-0.967,0.517-1.635,0.937-2.004c0.419-0.368,1.126-0.553,2.119-0.553c0.635,0,1.207,0.069,1.717,0.209
				c0.509,0.141,0.941,0.389,1.299,0.744c0.354,0.356,0.622,0.834,0.801,1.432c0.178,0.599,0.267,1.368,0.267,2.31
				c0,1.095-0.171,2.438-0.515,4.027c-0.344,1.591-0.72,3.188-1.126,4.791c-0.229,0.942-0.465,1.941-0.707,2.997
				c-0.241,1.056-0.457,2.112-0.648,3.168c-0.19,1.057-0.344,2.062-0.458,3.017c-0.115,0.953-0.172,1.813-0.172,2.576
				c0,1.298,0.044,2.597,0.134,3.894c0.089,1.298,0.134,2.673,0.134,4.123c0,0.662-0.02,1.247-0.058,1.756
				c-0.038,0.51-0.095,0.891-0.172,1.146c-0.28,0.992-0.643,1.731-1.088,2.214c-0.444,0.483-1.202,0.726-2.271,0.726
				c-0.74,0-1.325-0.083-1.757-0.248c-0.433-0.166-0.77-0.388-1.012-0.669c-0.242-0.279-0.401-0.591-0.477-0.935
				s-0.127-0.693-0.153-1.05l-0.42-7.216l-0.343,0.115c-0.84,1.068-1.756,2.266-2.749,3.588c-0.993,1.324-2.087,2.559-3.283,3.703
				c-1.196,1.146-2.5,2.106-3.913,2.883c-1.413,0.775-2.946,1.164-4.6,1.164c-0.331,0-0.757-0.083-1.279-0.248
				c-0.522-0.166-1.063-0.376-1.623-0.63c-0.56-0.255-1.094-0.541-1.604-0.858c-0.509-0.318-0.916-0.617-1.221-0.897
				c-1.4-1.298-2.393-2.762-2.978-4.39c-0.585-1.629-0.877-3.284-0.877-4.963c0-0.941,0.076-1.884,0.229-2.825
				c0.153-0.941,0.331-1.852,0.535-2.729c0.204-0.878,0.426-1.705,0.668-2.481c0.242-0.775,0.439-1.47,0.592-2.08
				c0.483-1.909,0.916-3.589,1.298-5.039s0.719-2.724,1.012-3.817c0.292-1.094,0.541-2.03,0.744-2.807
				C174.788,31.82,174.966,31.14,175.119,30.554z"/>
			<path fill="#FFFFFF" d="M212.722,57.772c0.202,0,0.386,0.025,0.553,0.076c0.165,0.051,0.35,0.108,0.553,0.172
				c0.204,0.063,0.433,0.121,0.688,0.172c0.254,0.051,0.585,0.076,0.991,0.076c1.196,0,2.526-0.127,3.989-0.382
				c1.464-0.254,2.844-0.585,4.142-0.992s2.411-0.871,3.34-1.394c0.93-0.521,1.458-1.063,1.585-1.622
				c0.076-0.307,0.115-0.573,0.115-0.803c0-0.432-0.211-0.846-0.631-1.24s-0.948-0.77-1.583-1.126
				c-0.637-0.356-1.324-0.688-2.063-0.992c-0.737-0.307-1.425-0.586-2.062-0.84l-1.298-0.535c-0.661-0.254-1.311-0.566-1.947-0.935
				c-0.636-0.369-1.227-0.795-1.774-1.279c-0.548-0.483-1.03-1.05-1.45-1.698c-0.42-0.649-0.732-1.394-0.937-2.233
				c-0.101-0.356-0.184-0.713-0.248-1.069c-0.063-0.356-0.094-0.737-0.094-1.146c0-0.661,0.222-1.418,0.667-2.271
				c0.444-0.854,1.044-1.699,1.794-2.538c0.752-0.841,1.604-1.643,2.559-2.406c0.953-0.764,1.952-1.399,2.996-1.908
				c0.765-0.535,1.502-1.018,2.215-1.451c0.712-0.433,1.431-0.802,2.155-1.106c0.726-0.306,1.465-0.547,2.215-0.726
				c0.75-0.177,1.546-0.268,2.387-0.268c0.762,0,1.59,0.039,2.48,0.115c0.892,0.076,1.705,0.254,2.442,0.533
				c0.74,0.281,1.356,0.694,1.854,1.241c0.496,0.548,0.742,1.279,0.742,2.195c0,0.28-0.037,0.648-0.113,1.107
				c-0.076,0.458-0.204,0.915-0.381,1.375c-0.18,0.457-0.396,0.853-0.649,1.183c-0.255,0.331-0.56,0.496-0.916,0.496
				c-0.587,0-1.069-0.114-1.45-0.344c-0.384-0.229-0.726-0.478-1.032-0.745c-0.305-0.266-0.624-0.514-0.954-0.743
				c-0.331-0.229-0.737-0.344-1.222-0.344c-0.585,0-1.266,0.108-2.042,0.325c-0.776,0.216-1.571,0.509-2.387,0.877
				c-0.813,0.369-1.609,0.796-2.385,1.278c-0.776,0.484-1.477,0.98-2.099,1.489c-0.624,0.51-1.128,1.012-1.509,1.508
				c-0.382,0.497-0.573,0.949-0.573,1.355c0,0.433,0.141,0.789,0.42,1.068c0.28,0.281,0.637,0.522,1.069,0.726
				c0.559,0.306,1.202,0.61,1.928,0.917c0.725,0.305,1.457,0.61,2.194,0.915c0.738,0.306,1.458,0.611,2.158,0.917
				c0.698,0.305,1.303,0.586,1.812,0.84c0.688,0.356,1.306,0.706,1.854,1.049c0.546,0.345,1.01,0.72,1.394,1.127
				c0.381,0.407,0.673,0.865,0.877,1.374c0.202,0.51,0.306,1.107,0.306,1.794c0,0.331-0.027,0.663-0.077,0.993
				c-0.051,0.331-0.127,0.713-0.229,1.145c-0.076,0.382-0.211,0.828-0.4,1.337c-0.191,0.509-0.396,1.012-0.611,1.508
				c-0.217,0.496-0.438,0.941-0.669,1.336c-0.229,0.395-0.418,0.655-0.572,0.782c-0.991,0.916-2.163,1.775-3.511,2.577
				c-1.35,0.801-2.755,1.501-4.22,2.1c-1.463,0.598-2.926,1.075-4.39,1.431c-1.463,0.357-2.806,0.535-4.026,0.535
				c-0.612,0-1.286-0.121-2.023-0.363c-0.739-0.24-1.42-0.559-2.042-0.953c-0.625-0.395-1.146-0.846-1.566-1.355
				c-0.42-0.509-0.629-1.018-0.629-1.527c0-0.254,0.076-0.54,0.229-0.858s0.344-0.611,0.573-0.879
				c0.229-0.267,0.477-0.496,0.744-0.687C212.243,57.868,212.492,57.772,212.722,57.772z"/>
			<path fill="#FFFFFF" d="M243.604,49.794c0-1.095,0.292-2.023,0.877-2.787c0.586-0.764,1.362-1.272,2.328-1.527
				c0.28-0.559,0.713-1.317,1.3-2.271c0.585-0.955,1.311-1.991,2.176-3.112c0.865-1.119,1.851-2.245,2.957-3.378
				c1.108-1.132,2.33-2.162,3.665-3.091c1.337-0.93,2.774-1.687,4.313-2.272c1.541-0.585,3.176-0.878,4.905-0.878
				c1.476,0,2.761,0.179,3.856,0.535c1.095,0.355,1.997,0.853,2.709,1.488c0.713,0.637,1.249,1.394,1.605,2.271
				c0.355,0.879,0.533,1.826,0.533,2.845c0,0.865-0.113,1.692-0.344,2.48c-0.356,1.426-1.018,2.673-1.984,3.741
				c-0.968,1.069-2.106,2.005-3.416,2.806c-1.313,0.803-2.736,1.47-4.276,2.005c-1.539,0.534-3.08,0.98-4.619,1.336
				c-1.541,0.357-3.022,0.63-4.446,0.82c-1.426,0.191-2.66,0.338-3.704,0.439c-0.229,0.458-0.426,1.038-0.591,1.737
				c-0.166,0.7-0.248,1.38-0.248,2.042c0,1.477,0.585,2.622,1.756,3.436c1.17,0.814,2.787,1.222,4.847,1.222
				c1.197,0,2.343-0.134,3.437-0.4c1.094-0.268,2.131-0.611,3.111-1.031c0.979-0.419,1.902-0.878,2.768-1.374
				s1.654-0.986,2.367-1.47c0.917-0.611,1.787-1.126,2.615-1.546c0.826-0.42,1.559-0.63,2.195-0.63c0.634,0,1.042,0.159,1.221,0.478
				c0.178,0.317,0.267,0.654,0.267,1.011c0,0.204-0.006,0.401-0.018,0.593c-0.015,0.19-0.032,0.35-0.059,0.477
				c-0.128,0.662-0.382,1.323-0.763,1.985s-0.865,1.234-1.45,1.718c-2.647,2.087-5.363,3.576-8.15,4.466
				c-2.787,0.891-5.759,1.336-8.915,1.336c-0.609,0-1.329-0.038-2.155-0.114c-0.828-0.076-1.687-0.229-2.578-0.458
				c-0.891-0.229-1.768-0.56-2.633-0.992s-1.637-1.005-2.311-1.718c-0.674-0.712-1.222-1.591-1.642-2.634
				c-0.419-1.044-0.63-2.304-0.63-3.779c0-1.197,0.165-2.533,0.497-4.009c-0.332-0.051-0.644-0.223-0.937-0.515
				C243.75,50.78,243.604,50.354,243.604,49.794z M267.5,39.22c0.051-0.127,0.076-0.242,0.076-0.344s0-0.216,0-0.344
				c0-0.687-0.254-1.203-0.763-1.546c-0.511-0.344-1.12-0.516-1.833-0.516c-1.121,0-2.22,0.293-3.302,0.878
				c-1.081,0.586-2.099,1.317-3.055,2.195c-0.954,0.878-1.8,1.82-2.537,2.825c-0.739,1.005-1.313,1.915-1.718,2.729
				c1.831-0.152,3.51-0.4,5.038-0.743c1.527-0.345,2.856-0.777,3.989-1.298c1.132-0.521,2.048-1.107,2.748-1.757
				C266.846,40.651,267.296,39.958,267.5,39.22z"/>
		</g>
	</g>
</g>
</svg>
