<?xml version="1.0" encoding="utf-8"?>
<!DOCTYPE svg PUBLIC "-//W3C//DTD SVG 1.1//EN" "http://www.w3.org/Graphics/SVG/1.1/DTD/svg11.dtd">
<svg style="width:308px;height:308px;" version="1.1" id="图形" xmlns="http://www.w3.org/2000/svg" xmlns:xlink="http://www.w3.org/1999/xlink" x="0px" y="0px" width="1024px" height="1024px" viewBox="0 0 1024 1024" enable-background="new 0 0 1024 1024" xml:space="preserve">
  <path class="svgpath" data-index="path_0" fill="#666666" d="M907.618072 232.742353 744.713682 232.742353 744.713682 116.382952c0-12.852708-10.419786-23.272495-23.272495-23.272495L302.556765 93.110457c-12.852708 0-23.272495 10.418762-23.272495 23.272495l0 116.360425L116.380904 232.743377c-12.852708 0-23.272495 10.419786-23.272495 23.272495s10.418762 23.272495 23.272495 23.272495l791.237168 0c12.852708 0 23.272495-10.419786 23.272495-23.272495S920.469756 232.742353 907.618072 232.742353zM325.829259 139.654423l372.340458 0 0 93.08793L325.829259 232.742353 325.829259 139.654423z" />
<path class="svgpath" data-index="path_1" fill="#666666" d="M791.257647 372.362985c-12.852708 0-23.272495 10.418762-23.272495 23.272495l0 488.712146L256.012799 884.347625 256.012799 395.635479c0-12.852708-10.418762-23.272495-23.272495-23.272495s-23.272495 10.418762-23.272495 23.272495l0 511.983617c0 12.852708 10.418762 23.272495 23.272495 23.272495l558.516318 0c12.852708 0 23.272495-10.419786 23.272495-23.272495L814.529118 395.635479C814.529118 382.782771 804.110355 372.362985 791.257647 372.362985z" />
<path class="svgpath" data-index="path_2" fill="#666666" d="M442.189684 767.987201l0-372.351721c0-12.852708-10.418762-23.272495-23.272495-23.272495s-23.272495 10.418762-23.272495 23.272495l0 372.351721c0 12.852708 10.418762 23.272495 23.272495 23.272495S442.189684 780.839909 442.189684 767.987201z" />
<path class="svgpath" data-index="path_3" fill="#666666" d="M628.353257 767.987201l0-372.351721c0-12.852708-10.419786-23.272495-23.272495-23.272495s-23.272495 10.418762-23.272495 23.272495l0 372.351721c0 12.852708 10.419786 23.272495 23.272495 23.272495S628.353257 780.839909 628.353257 767.987201z" />

</svg>
