<?xml version="1.0" encoding="utf-8"?>
<!DOCTYPE svg PUBLIC "-//W3C//DTD SVG 1.1//EN" "http://www.w3.org/Graphics/SVG/1.1/DTD/svg11.dtd">
<svg style="width:308px;height:308px;" version="1.1" id="图形" xmlns="http://www.w3.org/2000/svg" xmlns:xlink="http://www.w3.org/1999/xlink" x="0px" y="0px" width="1024px" height="1024px" viewBox="0 0 1024 1024" enable-background="new 0 0 1024 1024" xml:space="preserve">
  <path class="svgpath" data-index="path_0" fill="#999" d="M417.862112 717.976188 304.9253 605.044116 260.398355 759.852948Z" />
<path class="svgpath" data-index="path_1" fill="#999" d="M832.787211 70.215178l-493.656466 493.77594 117.033279 118.456902 493.910257-494.028697c6.838019-6.755868 15.605051-18.444071 0.704064-32.580023l-85.203027-86.240153C856.784749 60.703547 839.62523 63.460334 832.787211 70.215178z" />
<path class="svgpath" data-index="path_2" fill="#999" d="M896.096706 891.475707l-764.241239 0.273223-0.199553-761.613034 443.592179 0-0.059354-66.164932L120.856511 63.970964c-30.077255 0-56.998501 27.758204-56.998501 59.798944l0 776.915555c0 32.04074 27.180153 58.712193 59.222239 58.712193l777.840525 0c32.042085 0 58.016733-26.89965 58.016733-58.94039L958.937508 447.87247l-62.839778-0.273223L896.096706 891.475707z" />

</svg>
