<?xml version="1.0" encoding="utf-8"?>
<!DOCTYPE svg PUBLIC "-//W3C//DTD SVG 1.1//EN" "http://www.w3.org/Graphics/SVG/1.1/DTD/svg11.dtd">
<svg style="width:308px;height:308px;" version="1.1" id="图形" xmlns="http://www.w3.org/2000/svg" xmlns:xlink="http://www.w3.org/1999/xlink" x="0px" y="0px" width="1024px" height="1024px" viewBox="0 0 1024 1024" enable-background="new 0 0 1024 1024" xml:space="preserve">
  <path class="svgpath" data-index="path_0" fill="#666" d="M63.787 203.909l127.023 0 0 127.732-127.023 0 0-127.732zM276.358 203.909l682.107 0 0 127.732-682.107 0 0-127.732zM63.787 459.686l127.023 0 0 127.732-127.023 0 0-127.732zM276.358 459.686l682.107 0 0 127.732-682.107 0 0-127.732zM63.787 715.464l127.023 0 0 127.732-127.023 0 0-127.732zM276.358 715.464l682.107 0 0 127.732-682.107 0 0-127.732z" />

</svg>
