<?xml version="1.0" encoding="utf-8"?>
<!DOCTYPE svg PUBLIC "-//W3C//DTD SVG 1.1//EN" "http://www.w3.org/Graphics/SVG/1.1/DTD/svg11.dtd">
<svg style="width:308px;height:308px;" version="1.1" id="图形" xmlns="http://www.w3.org/2000/svg" xmlns:xlink="http://www.w3.org/1999/xlink" x="0px" y="0px" width="1024px" height="1024px" viewBox="0 0 1024 1024" enable-background="new 0 0 1024 1024" xml:space="preserve">
  <path class="svgpath" data-index="path_0" fill="#fff" d="M511.42144 1018.862592l-24.646656-30.444544c-32.395264-40.011776-118.449152-146.297856-196.73088-264.282112-44.509184-67.083264-79.731712-127.8208-104.690688-180.527104-31.87712-67.315712-47.372288-121.450496-47.372288-165.495808 0-50.0736 9.987072-98.850816 29.682688-144.978944 18.968576-44.424192 46.052352-84.414464 80.49664-118.858752 34.445312-34.444288 74.43456-61.52704 118.858752-80.49664C413.147136 14.083072 461.924352 4.096 511.997952 4.096c100.475904 0 194.684928 39.15776 265.27232 110.258176 34.132992 34.381824 60.929024 74.400768 79.642624 118.944768 19.31264 45.970432 29.106176 94.693376 29.106176 144.813056 0 44.332032-15.685632 99.033088-47.952896 167.227392-25.322496 53.51424-60.908544 114.966528-105.77408 182.652928-90.783744 136.962048-186.29632 250.194944-196.887552 262.654976L511.42144 1018.862592zM511.997952 65.536c-41.73312 0-82.394112 8.326144-120.851456 24.747008-37.177344 15.874048-70.668288 38.56384-99.540992 67.436544-28.873728 28.872704-51.562496 62.363648-67.436544 99.540992-16.420864 38.457344-24.747008 79.117312-24.747008 120.851456 0 57.39008 41.309184 203.68384 312.961024 544.09728 42.643456-52.31104 109.288448-138.53184 168.697856-228.161536 118.602752-178.930688 143.499264-270.569472 143.499264-315.93472 0-83.122176-32.285696-161.420288-90.91072-220.471296C674.702336 98.246656 595.97824 65.536 511.997952 65.536z" />
<path class="svgpath" data-index="path_1" fill="#fff" d="M512 544.770048c-87.235584 0-158.208-70.972416-158.208-158.208 0-87.235584 70.972416-158.208 158.208-158.208s158.208 70.972416 158.208 158.208C670.208 473.797632 599.235584 544.770048 512 544.770048zM512 289.793024c-53.357568 0-96.768 43.410432-96.768 96.768 0 53.358592 43.410432 96.768 96.768 96.768s96.768-43.410432 96.768-96.768C608.768 333.203456 565.357568 289.793024 512 289.793024z" />

</svg>
