<?xml version="1.0" encoding="utf-8"?>
<!-- Generator: Adobe Illustrator 16.0.0, SVG Export Plug-In . SVG Version: 6.00 Build 0)  -->
<!DOCTYPE svg PUBLIC "-//W3C//DTD SVG 1.1//EN" "http://www.w3.org/Graphics/SVG/1.1/DTD/svg11.dtd">
<svg version="1.1" id="图形" xmlns="http://www.w3.org/2000/svg" xmlns:xlink="http://www.w3.org/1999/xlink" x="0px" y="0px"
	 width="919.473px" height="924.671px" viewBox="52.303 48.128 919.473 924.671"
	 enable-background="new 52.303 48.128 919.473 924.671" xml:space="preserve">
<path fill="#666666" d="M762.88,937.984c-28.673,0-55.809-5.462-81.408-16.385c-25.601-10.922-47.958-25.94-67.072-45.056
	c-19.114-19.114-34.133-41.472-45.056-67.072c-10.923-25.6-16.384-52.735-16.384-81.407c0-28.673,5.461-55.809,16.384-81.408
	c10.923-25.601,25.941-47.787,45.056-66.561c19.115-18.773,41.472-33.621,67.072-44.544c25.6-10.923,52.735-16.384,81.408-16.384
	c28.672,0,55.808,5.462,81.407,16.384c25.601,10.923,47.787,25.771,66.561,44.544s33.621,40.96,44.544,66.561
	c10.923,25.6,16.384,52.735,16.384,81.408c0,28.672-5.461,55.808-16.384,81.407c-10.923,25.601-25.771,47.958-44.544,67.072
	c-18.773,19.115-40.96,34.134-66.561,45.057C818.688,932.522,791.552,937.984,762.88,937.984L762.88,937.984z M866.304,694.272
	h-75.776v-70.656c0-9.558-3.072-17.75-9.216-24.576c-6.144-6.827-13.995-10.24-23.552-10.24c-9.558,0-17.066,3.413-22.528,10.24
	c-5.461,6.826-8.192,15.019-8.192,24.576v70.656h-66.56c-9.558,0-17.749,3.413-24.576,10.239
	c-6.826,6.827-10.24,15.019-10.24,24.576s3.414,16.726,10.24,21.504c6.827,4.779,15.019,7.168,24.576,7.168h66.56v72.704
	c0,9.558,2.731,17.749,8.192,24.576c5.462,6.826,12.971,10.24,22.528,10.24c9.557,0,17.408-3.414,23.552-10.24
	c6.144-6.827,9.216-15.019,9.216-24.576V757.76h75.776v2.048c9.558,0,17.749-2.73,24.576-8.191
	c6.826-5.462,10.239-12.971,10.239-22.528s-3.413-17.749-10.239-24.576C884.053,697.686,875.862,694.272,866.304,694.272z
	 M613.375,439.296c-2.73,10.923-5.461,20.821-8.191,29.696c-2.73,7.509-6.145,15.189-10.24,23.04s-8.533,13.824-13.312,17.92
	c-6.145,4.778-10.411,9.898-12.801,15.359c-2.389,5.462-4.437,11.094-6.144,16.896s-3.584,11.776-5.632,17.92
	c-2.048,6.145-5.462,12.288-10.24,18.432c-15.701,20.48-27.478,40.277-35.328,59.393c-7.851,19.114-13.312,37.547-16.384,55.296
	s-3.926,35.328-2.56,52.736c1.365,17.407,4.096,34.304,8.191,50.688c2.73,12.288,6.827,25.088,12.288,38.4
	c5.461,13.312,13.482,26.965,24.064,40.96c10.581,13.994,24.063,27.647,40.447,40.96c16.385,13.312,36.864,26.112,61.44,38.4
	c-16.384,3.413-35.499,6.485-57.344,9.216c-18.433,2.048-41.131,3.925-68.097,5.632c-26.965,1.707-57.855,2.56-92.672,2.56
	c-17.749,0-38.399-0.683-61.952-2.048c-23.552-1.365-47.786-3.071-72.703-5.12c-24.918-2.048-49.493-4.438-73.729-7.168
	c-24.234-2.73-46.421-5.632-66.56-8.704c-20.139-3.071-37.205-6.314-51.2-9.728c-13.994-3.413-22.698-6.485-26.112-9.216
	c-6.144-5.462-10.922-20.651-14.336-45.568c-3.413-24.917-2.389-57.515,3.072-97.792c3.413-22.528,12.459-39.766,27.136-51.712
	c14.678-11.946,31.915-21.333,51.712-28.16c19.798-6.826,40.448-13.141,61.952-18.943s40.448-13.824,56.832-24.064
	c12.971-8.192,22.869-15.872,29.696-23.04c6.826-7.168,11.605-14.507,14.336-22.016c2.73-7.51,4.096-15.36,4.096-23.553
	c0-8.191-0.342-17.066-1.024-26.623c-1.365-14.337-6.314-25.601-14.848-33.793c-8.533-8.191-17.578-16.384-27.136-24.575
	c-5.461-4.097-10.24-10.24-14.336-18.433c-4.096-8.191-7.51-16.042-10.24-23.552c-3.413-8.875-6.144-18.773-8.191-29.696
	c-4.779-1.365-9.217-3.413-13.313-6.144c-3.413-2.73-7.168-6.827-11.264-12.288c-4.096-5.461-7.851-13.653-11.265-24.576
	c-3.413-10.24-4.607-19.797-3.584-28.672c1.024-8.875,2.901-16.384,5.633-22.528c2.73-7.509,6.485-13.995,11.264-19.456
	c0-23.21,1.365-46.421,4.096-69.632c2.73-19.797,6.998-40.96,12.8-63.488c5.803-22.528,15.189-42.667,28.16-60.416
	c12.288-17.067,25.43-31.061,39.425-41.984c13.994-10.923,28.501-19.456,43.52-25.6s30.037-10.411,45.056-12.8
	c15.019-2.39,29.354-3.584,43.008-3.584c17.75,0,34.816,2.048,51.2,6.144c16.384,4.096,31.573,9.557,45.568,16.384
	c13.994,6.827,26.453,14.507,37.376,23.04s19.797,17.237,26.624,26.112c15.701,19.797,27.136,41.643,34.304,65.536
	s12.459,46.421,15.872,67.584c3.413,24.576,4.778,49.152,4.096,73.728c4.097,3.413,7.51,7.509,10.24,12.288
	c2.73,4.096,4.778,9.557,6.144,16.384c1.366,6.827,1.366,15.36,0,25.6c-1.365,12.971-4.096,23.21-8.191,30.72
	c-4.096,7.509-8.533,13.312-13.313,17.408C625.323,433.835,619.52,437.248,613.375,439.296L613.375,439.296z"/>
</svg>
