<?xml version="1.0" encoding="utf-8"?>
<!DOCTYPE svg PUBLIC "-//W3C//DTD SVG 1.1//EN" "http://www.w3.org/Graphics/SVG/1.1/DTD/svg11.dtd">
<svg style="width:308px;height:308px;" version="1.1" id="图形" xmlns="http://www.w3.org/2000/svg" xmlns:xlink="http://www.w3.org/1999/xlink" x="0px" y="0px" width="1024px" height="1024px" viewBox="0 0 1024 1024" enable-background="new 0 0 1024 1024" xml:space="preserve">
  <path class="svgpath" data-index="path_0" fill="#FFF" d="M512.064 376.576C437.312 376.576 376.64 437.184 376.64 512s60.672 135.36 135.424 135.36S647.424 586.752 647.424 512 586.88 376.576 512.064 376.576zM512 32C246.784 32 32 246.848 32 512c0 265.152 214.784 480 480 480 265.152 0 480-214.848 480-480C992 246.848 777.152 32 512 32zM836.992 566.208l-32.576 0c-14.784 0-30.656 11.648-35.136 25.792l-18.624 45.312c-6.976 13.184-4.16 32.64 6.336 43.072l23.104 22.976c10.496 10.624 10.496 27.904 0 38.4l-38.4 38.336c-10.56 10.56-27.776 10.56-38.4 0l-22.912-23.04c-10.496-10.496-29.952-13.376-43.072-6.272L592 769.344c-14.144 4.48-25.792 20.224-25.792 35.136l0 32.448c0 14.848-12.224 27.072-27.072 27.072L484.928 864c-14.912 0-27.136-12.16-27.136-27.072L457.792 804.48c0-14.848-11.584-30.656-25.856-35.136L386.56 750.72c-13.12-7.104-32.448-4.224-42.88 6.272l-23.104 23.04c-10.496 10.56-27.776 10.56-38.272 0L243.968 741.76c-10.496-10.496-10.496-27.776 0-38.4l23.04-22.976c10.56-10.432 13.376-29.888 6.4-43.072L254.656 592C250.304 577.792 234.496 566.208 219.584 566.144L187.136 566.144C172.16 566.144 160 553.984 160 539.072L160 484.928c0-14.912 12.16-27.072 27.136-27.072l32.448 0.064c14.912 0 30.72-11.648 35.072-25.856l18.688-45.376c7.04-13.12 4.16-32.448-6.4-43.008l-23.04-23.04c-10.496-10.56-10.496-27.776 0-38.272l38.336-38.336c10.496-10.496 27.776-10.496 38.272 0l23.104 23.04c10.56 10.56 29.824 13.376 42.944 6.4L432 254.656c14.272-4.352 25.856-20.16 25.856-35.136L457.856 187.072C457.792 172.16 470.016 160 484.928 160l54.144 0c14.848 0 27.072 12.16 27.072 27.072l0 32.448c0 14.912 11.712 30.72 25.792 35.136l45.312 18.688c13.12 7.04 32.576 4.16 43.072-6.4l22.976-23.04c10.624-10.496 27.84-10.496 38.4 0l38.4 38.336c10.496 10.496 10.496 27.776 0 38.336l-23.104 22.976c-10.496 10.56-13.312 29.888-6.336 43.008l18.624 45.312c4.48 14.272 20.224 25.856 35.136 25.856l32.576 0c14.784 0 27.008 12.16 27.008 27.072l0 54.208C864 553.984 851.84 566.208 836.992 566.208z" />

</svg>
