<?xml version="1.0" encoding="utf-8"?>
<!DOCTYPE svg PUBLIC "-//W3C//DTD SVG 1.1//EN" "http://www.w3.org/Graphics/SVG/1.1/DTD/svg11.dtd">
<svg style="width:308px;height:308px;" version="1.1" id="图形" xmlns="http://www.w3.org/2000/svg" xmlns:xlink="http://www.w3.org/1999/xlink" x="0px" y="0px" width="1024px" height="1024px" viewBox="0 0 1024 1024" enable-background="new 0 0 1024 1024" xml:space="preserve">
  <path class="svgpath" data-index="path_0" fill="#888" d="M511.099491 957.751157c-108.61065 0-213.302037-39.449477-294.789956-111.081934-12.734022-11.193947-13.982456-30.592762-2.788509-43.325761 11.193947-12.735046 30.591739-13.981433 43.325761-2.789533 70.27453 61.775972 160.570046 95.797833 254.251681 95.797833 212.441437 0 385.274784-172.832324 385.274784-385.27376 0-212.441437-172.833347-385.274784-385.274784-385.274784-212.441437 0-385.274784 172.833347-385.274784 385.274784 0 63.485917 15.758915 126.400828 45.574988 181.941795 8.018627 14.939247 2.408863 33.549094-12.529361 41.568744-14.939247 8.016581-33.549094 2.408863-41.568744-12.528338C82.71077 657.620565 64.426335 584.66395 64.426335 511.078001c0-60.287061 11.81407-118.78743 35.113729-173.875073 22.499433-53.193503 54.701856-100.95939 95.712899-141.971455 41.012066-41.012066 88.777953-73.214489 141.970432-95.712899 55.087643-23.300682 113.588011-35.113729 173.875073-35.113729S629.886921 76.218916 684.974563 99.519598c53.192479 22.49841 100.958366 54.701856 141.970432 95.712899 41.011043 41.012066 73.214489 88.777953 95.712899 141.971455 23.300682 55.087643 35.113729 113.586988 35.113729 173.875073 0 60.287061-11.81407 118.78743-35.113729 173.875073-22.49841 53.192479-54.701856 100.958366-95.712899 141.970432-41.012066 41.011043-88.777953 73.214489-141.970432 95.712899C629.885897 945.937087 571.386552 957.751157 511.099491 957.751157z" />
<path class="svgpath" data-index="path_1" fill="#888" d="M513.146103 566.064336l-61.398372 0 0-327.457983c0-16.884552 13.814634-30.699186 30.699186-30.699186l0 0c16.884552 0 30.699186 13.814634 30.699186 30.699186L513.146103 566.064336z" />
<path class="svgpath" data-index="path_2" fill="#888" d="M771.127735 566.064336l-257.873162 0 0-61.398372 257.873162 0c16.884552 0 30.699186 13.814634 30.699186 30.699186l0 0C801.826921 552.249703 788.012288 566.064336 771.127735 566.064336z" />

</svg>
