<?xml version="1.0" encoding="utf-8"?>
<!DOCTYPE svg PUBLIC "-//W3C//DTD SVG 1.1//EN" "http://www.w3.org/Graphics/SVG/1.1/DTD/svg11.dtd">
<svg style="width:308px;height:308px;" version="1.1" id="图形" xmlns="http://www.w3.org/2000/svg" xmlns:xlink="http://www.w3.org/1999/xlink" x="0px" y="0px" width="1184px" height="1024px" viewBox="0 0 1184 1024" enable-background="new 0 0 1184 1024" xml:space="preserve">
  <path class="svgpath" data-index="path_0" fill="#666" d="M331.776 263.168q0-23.552-14.336-37.888t-37.888-14.336q-24.576 0-43.008 15.36t-19.456 36.864q0 22.528 19.456 36.864t43.008 14.336 37.888-13.312 14.336-37.888zM755.712 552.96q0-15.36-14.336-28.672t-36.864-12.288q-16.384 0-28.672 13.312t-13.312 27.648q0 16.384 13.312 28.672t28.672 13.312q22.528 0 36.864-12.288t14.336-29.696zM621.568 263.168q0-23.552-14.336-37.888t-37.888-14.336q-24.576 0-43.008 15.36t-18.432 36.864q0 22.528 18.432 36.864t43.008 14.336q23.552 0 37.888-13.312t14.336-37.888zM984.064 552.96q0-15.36-15.36-28.672t-36.864-12.288q-15.36 0-27.648 13.312t-13.312 27.648q0 16.384 13.312 28.672t27.648 13.312q22.528 0 36.864-12.288t15.36-29.696zM831.488 326.656q-17.408-3.072-39.936-3.072-96.256 0-177.152 44.032t-128 119.808-46.08 163.84q0 45.056 13.312 87.04-20.48 2.048-38.912 2.048-15.36 0-28.672-1.024t-31.744-4.096-25.6-4.096-30.72-6.144-28.672-5.12l-144.384 71.68 40.96-123.904q-165.888-116.736-165.888-280.576 0-96.256 55.296-177.152t151.552-128 207.872-46.08q100.352 0 189.44 36.864t149.504 104.448 77.824 149.504zM1170.432 647.168q0 66.56-38.912 126.976t-106.496 110.592l31.744 103.424-113.664-61.44q-86.016 20.48-124.928 20.48-96.256 0-177.152-39.936t-128-109.568-47.104-150.528 47.104-151.552 128-108.544 177.152-40.96q92.16 0 173.056 40.96t130.048 109.568 49.152 150.528z" />

</svg>
